<svg width="19" height="27" viewBox="0 0 19 27" fill="none" xmlns="http://www.w3.org/2000/svg">
<path d="M36.8521 2.19061C36.6176 1.65976 36.1906 1.25199 35.6497 1.04255C34.5327 0.609541 33.272 1.16652 32.8391 2.28354L29.3128 11.3878C29.2464 11.2052 29.1861 11.0012 29.127 10.8004C28.8732 9.9374 28.5571 8.86332 27.4864 8.37411C26.6605 7.9969 25.6602 8.21792 24.6929 8.43168C24.0037 8.58404 23.2911 8.7419 22.7832 8.64406C22.3788 8.56636 21.9081 8.20987 21.41 7.83245C20.6692 7.27124 19.8294 6.63508 18.7968 6.63508C17.9499 6.63508 17.2427 7.05886 16.6395 7.49345C15.9178 7.58284 15.299 8.00819 14.9449 8.6082C14.8987 8.62313 14.8536 8.63561 14.8105 8.64406C14.3028 8.7417 13.59 8.58384 12.9009 8.43148C11.9335 8.21772 10.9334 7.9965 10.1073 8.37392C9.03659 8.86312 8.72057 9.9372 8.46654 10.8002C8.4074 11.0013 8.34738 11.205 8.28098 11.3878L4.7541 2.28334C4.32148 1.16633 3.06056 0.609541 1.94394 1.04255C1.40287 1.25209 0.975747 1.65976 0.741263 2.19041C0.50678 2.72127 0.493224 3.31165 0.702756 3.85272L4.71265 14.2047H4.5206C4.13592 14.2047 3.81607 14.5005 3.78611 14.884C3.77825 14.9838 3.60516 17.3582 4.48278 19.9781C5.66964 23.522 8.20219 25.7946 11.8068 26.5502C11.8565 26.5605 11.9071 26.5657 11.958 26.5657H25.6354C25.6863 26.5657 25.7369 26.5605 25.7866 26.5502C29.3911 25.7946 31.9237 23.522 33.1106 19.9781C33.9882 17.3581 33.8151 14.9838 33.8072 14.884C33.7773 14.5005 33.4574 14.2047 33.0727 14.2047H32.8807L36.8906 3.85272C37.1001 3.31165 37.0866 2.72136 36.8521 2.19061ZM16.923 8.94858C17.3761 8.94858 17.7449 9.31735 17.7449 9.7705C17.7449 10.2237 17.3761 10.5924 16.923 10.5924C16.4698 10.5924 16.101 10.2237 16.101 9.7705C16.101 9.31735 16.4698 8.94858 16.923 8.94858ZM8.28569 13.5547C8.6299 13.3332 8.88354 13.1299 9.08305 12.9153C9.51705 12.4495 9.70163 11.8225 9.88002 11.216C10.1166 10.4121 10.2912 9.9098 10.7194 9.71412C11.0968 9.54162 11.8861 9.71618 12.5828 9.87011C13.2712 10.0225 13.9788 10.1785 14.658 10.142C14.8362 11.2316 15.7839 12.066 16.923 12.066C18.1887 12.066 19.2184 11.0363 19.2184 9.7706C19.2184 9.13365 18.9575 8.55673 18.537 8.14032C18.6252 8.11959 18.7116 8.10849 18.7967 8.10849C19.3341 8.10849 19.9102 8.54494 20.5202 9.00693C21.1311 9.46991 21.7628 9.9484 22.5054 10.0909C23.3118 10.246 24.1755 10.0549 25.0107 9.87031C25.7072 9.71647 26.4967 9.54201 26.8739 9.71412C27.3023 9.90999 27.477 10.4123 27.7133 11.2162C27.8917 11.8227 28.0763 12.4497 28.5101 12.9153C28.9264 13.3622 30.3151 14.1417 30.4239 14.2047H25.7179C25.8946 13.1122 25.4618 11.99 24.5403 11.2977C23.2013 10.2924 21.2936 10.5636 20.2879 11.9027C20.1705 12.059 20.12 12.2555 20.1476 12.4489C20.175 12.6424 20.2782 12.8169 20.4344 12.9343L22.1261 14.2047H16.6143C16.39 12.8127 15.1867 11.7774 13.7665 11.7774C13.6528 11.7774 13.5376 11.7841 13.4241 11.7975C12.6582 11.8885 11.9735 12.272 11.4961 12.8779C11.1871 13.2701 10.9906 13.725 10.9139 14.2047H7.16966C7.27821 14.1419 8.02537 13.7223 8.28569 13.5547ZM24.2633 13.9667L22.0563 12.3094C22.5624 12.0744 23.1789 12.1182 23.6554 12.4759C24.1284 12.8314 24.3517 13.4065 24.2633 13.9667ZM14.876 13.7912L12.4781 14.0756C12.5246 13.9751 12.583 13.8791 12.6532 13.7899C12.8871 13.4933 13.2223 13.3054 13.5972 13.2609C13.6534 13.2543 13.7103 13.2509 13.7664 13.2509C14.2131 13.2509 14.6161 13.4604 14.876 13.7912ZM2.07665 3.32029C2.00926 3.14642 2.01368 2.95654 2.08912 2.78581C2.16457 2.61508 2.3019 2.48403 2.47616 2.41645C2.83531 2.27735 3.24111 2.45633 3.38021 2.81577L7.14166 12.5262C7.0171 12.5983 6.18487 13.0665 5.91935 13.2404L2.07665 3.32029ZM31.7132 19.5103C30.6956 22.5492 28.6249 24.4269 25.5577 25.0923H12.0357C8.98374 24.4302 6.91769 22.5668 5.89449 19.5532C5.36649 17.9983 5.25715 16.5093 5.2437 15.6782H32.3507C32.3384 16.4989 32.2313 17.9635 31.7132 19.5103ZM35.5165 3.32049L31.6743 13.2396C31.4084 13.0661 30.5788 12.5999 30.4518 12.526L34.213 2.81567C34.3523 2.45633 34.7581 2.27745 35.1175 2.41655C35.2914 2.48393 35.4289 2.61498 35.5043 2.78571C35.5797 2.95654 35.5841 3.14652 35.5165 3.32049Z" fill="#313131"/>
</svg>
