<svg width="38" height="25" viewBox="0 0 38 25" fill="none" xmlns="http://www.w3.org/2000/svg">
<path d="M36.685 18.8113H35.1264C34.7588 11.0651 28.8583 4.75749 21.29 3.76239C21.4129 3.48249 21.4835 3.17459 21.4835 2.8498C21.4835 1.5924 20.4607 0.56958 19.2033 0.56958C17.9459 0.56958 16.9231 1.5924 16.9231 2.8498C16.9231 3.17466 16.9937 3.48249 17.1166 3.76239C9.54829 4.75749 3.64779 11.0651 3.28025 18.8113H1.72164C1.30151 18.8113 0.961548 19.1513 0.961548 19.5714V20.333C0.961548 21.4768 1.29703 22.585 1.93242 23.5381C2.49728 24.3858 3.44293 24.892 4.46204 24.892H33.9446C34.963 24.892 35.9093 24.3858 36.4749 23.5374C37.1096 22.5842 37.4451 21.4768 37.4451 20.333V19.5714C37.4451 19.1513 37.1051 18.8113 36.685 18.8113ZM19.2033 2.08977C19.6227 2.08977 19.9634 2.43045 19.9634 2.84987C19.9634 3.26922 19.6227 3.60997 19.2033 3.60997C18.7839 3.60997 18.4432 3.26929 18.4432 2.84987C18.4432 2.43045 18.784 2.08977 19.2033 2.08977ZM19.2033 5.13002C26.9097 5.13002 33.2071 11.2025 33.6062 18.8113H4.80044C5.19948 11.2025 11.4969 5.13002 19.2033 5.13002ZM35.9249 20.333C35.9249 21.1755 35.6778 21.9927 35.2094 22.6949C34.9266 23.1187 34.4538 23.3718 33.9446 23.3718H4.46204C3.95284 23.3718 3.47927 23.1187 3.19652 22.6942C2.72886 21.992 2.48174 21.1755 2.48174 20.3331V20.3316H35.9249V20.333V20.333Z" fill="white"/>
</svg>
