<svg width="23" height="15" viewBox="0 0 23 15" fill="none" xmlns="http://www.w3.org/2000/svg">
<path d="M20.9694 0.4729H2.727C1.64938 0.4729 0.772461 1.34982 0.772461 2.42744V3.73045C0.772461 8.37962 3.34072 12.5962 7.4739 14.7345C7.79316 14.8987 8.18664 14.7749 8.35216 14.4543C8.51634 14.1351 8.39253 13.7416 8.07199 13.5761C4.374 11.6633 2.07547 7.89099 2.07547 3.73038V2.42738C2.07547 2.06774 2.36736 1.77584 2.727 1.77584H20.9694C21.329 1.77584 21.6209 2.06774 21.6209 2.42738V3.73038C21.6209 7.89093 19.3224 11.6632 15.6231 13.5747C15.3026 13.7402 15.1788 14.1337 15.3429 14.453C15.4589 14.6771 15.6869 14.8061 15.9228 14.8061C16.0244 14.8061 16.126 14.7826 16.2211 14.7331C20.3557 12.5961 22.9239 8.38085 22.9239 3.73032V2.42732C22.9239 1.34982 22.0469 0.4729 20.9694 0.4729Z" fill="#313131"/>
</svg>
