<svg width="29" height="28" viewBox="0 0 29 28" fill="none" xmlns="http://www.w3.org/2000/svg">
<path d="M6.53696 27.4121C5.14771 27.4121 3.91746 26.7721 3.16194 25.656C2.37195 24.4891 2.24001 23.0132 2.79931 21.6046C2.8614 21.4273 3.72929 18.805 2.00137 15.7973C0.379693 12.9744 -0.196799 10.5575 0.28771 8.61389C0.688557 7.00566 1.36462 5.81866 2.35476 4.98505C3.53033 3.99537 5.11388 3.51434 7.19602 3.51434L8.33144 3.51525C11.9489 3.51525 14.4953 3.40425 16.8367 1.92137C18.7422 0.714531 20.7418 0.0498047 22.4671 0.0498047C24.2365 0.0498047 25.7351 0.748453 26.8009 2.07022C29.5721 5.50696 27.4658 8.98557 26.4316 10.3216C24.6091 12.6762 24.447 14.3868 25.9059 15.8677C27.0704 17.05 27.4259 18.8645 26.7902 20.3831C26.0816 22.0763 24.3189 23.0475 21.9541 23.0477C21.9539 23.0477 21.9536 23.0477 21.9532 23.0477C21.6817 23.0477 21.398 23.0351 21.1098 23.0103L21.0545 23.0054C19.3664 22.8599 18.0332 22.7449 16.8921 22.7449C14.3281 22.7449 12.8928 23.3574 10.9851 25.2654C9.2115 27.0397 7.58717 27.4121 6.53696 27.4121ZM7.19602 4.88585C3.17273 4.88585 2.11886 6.93809 1.61853 8.94561C1.22262 10.5336 1.75148 12.609 3.19056 15.1142C5.27361 18.74 4.13398 21.9488 4.08451 22.0837C4.08232 22.0898 4.07994 22.0959 4.07747 22.1019C3.6844 23.0847 3.76458 24.0998 4.29755 24.8872C4.79386 25.6202 5.61009 26.0406 6.53687 26.0406C7.32795 26.0406 8.57347 25.7379 10.0153 24.2958C12.1725 22.1381 13.972 21.3734 16.8922 21.3734C18.0923 21.3734 19.4515 21.4906 21.1724 21.639L21.2277 21.6437C21.4768 21.6652 21.721 21.6761 21.9535 21.6761C21.9537 21.6761 21.9538 21.6761 21.9541 21.6761C23.7651 21.6759 25.0333 21.0286 25.5252 19.8534C25.9434 18.8543 25.6983 17.6111 24.9289 16.8303C23.8476 15.7324 23.3974 14.478 23.591 13.1019C23.7471 11.9912 24.3215 10.807 25.3472 9.48206C26.3841 8.14255 27.813 5.51025 25.7334 2.93117C24.9255 1.92932 23.8267 1.42132 22.4672 1.42132C20.9983 1.42132 19.2595 2.01034 17.5706 3.08002C14.9226 4.75711 12.071 4.88676 8.33144 4.88676L7.19602 4.88585Z" fill="#313131"/>
</svg>
