<svg width="29" height="28" viewBox="0 0 29 28" fill="none" xmlns="http://www.w3.org/2000/svg">
<path d="M27.6249 11.339C25.1116 9.99466 21.1956 7.89054 17.338 5.72796C17.1627 4.32521 16.2275 3.15625 14.8832 2.86401C15.117 2.22109 15.7015 1.22747 17.0458 1.16902C17.3965 1.16902 17.6303 0.876783 17.5718 0.584543C17.5718 0.233855 17.2796 6.35386e-05 16.9873 0.0585115C15.0001 0.175407 14.0065 1.7535 13.7142 2.92246C13.1298 3.03936 12.6037 3.27315 12.1946 3.62384C9.56444 4.85124 2.95981 7.83209 1.9662 8.29967C1.49862 8.53346 0.972584 9.05949 0.972584 9.64397V23.3208C0.914136 23.8468 1.44017 24.3144 2.08309 24.3729L27.508 27.4121H27.5664C28.2093 27.4121 28.7354 26.8861 28.7354 26.2432V12.5664C28.7354 11.9234 28.1509 11.6312 27.6249 11.339ZM14.1818 3.91608C15.2339 3.91608 16.1691 4.79279 16.1691 5.90331C16.1691 7.01382 15.2339 7.83209 14.1818 7.83209C13.1298 7.83209 12.1946 6.95537 12.1946 5.84486C12.1946 4.73435 13.0713 3.91608 14.1818 3.91608ZM11.1425 5.20193C11.0841 5.43572 11.0256 5.66951 11.0256 5.90331C11.0256 7.65674 12.4284 9.05949 14.1818 9.05949C15.5261 9.00105 16.6951 8.12433 17.1042 6.95537C19.4421 8.29967 22.3645 9.87777 24.4102 11.0467L3.95343 8.59191L11.1425 5.20193ZM27.0988 26.2432L2.49223 23.2039C2.25844 23.2039 2.14154 23.0286 2.14154 22.8532V19.1125C3.4274 18.8203 3.83653 19.0541 4.30412 19.3463C4.71325 19.5801 5.23929 19.9308 6.17445 19.9308C6.40824 19.9308 6.70048 19.9308 7.05117 19.8724C7.05117 19.8724 7.05117 19.8724 7.10962 19.8724C7.10962 19.8724 7.10962 19.8724 7.16807 19.8724C8.68772 19.4632 9.09685 19.697 9.62288 19.9893C10.032 20.2231 10.5581 20.5737 11.4932 20.5737C11.727 20.5737 12.0193 20.5737 12.3699 20.5153C12.3699 20.5153 12.3699 20.5153 12.4284 20.5153C12.4284 20.5153 12.4284 20.5153 12.4868 20.5153C14.0065 20.1062 14.4156 20.34 14.9416 20.6322C15.3508 20.866 15.8768 21.2167 16.812 21.2167C17.0458 21.2167 17.338 21.2167 17.6887 21.1582C17.6887 21.1582 17.6887 21.1582 17.7472 21.1582C17.7472 21.1582 17.7472 21.1582 17.8056 21.1582C19.3252 20.7491 19.7344 20.9829 20.2604 21.2751C20.6695 21.5089 21.1956 21.8596 22.1307 21.8596C22.3645 21.8596 22.6568 21.8596 23.0075 21.8011C23.0075 21.8011 23.0075 21.8011 23.0659 21.8011C23.0659 21.8011 23.0659 21.8011 23.1244 21.8011C24.644 21.392 25.0531 21.6258 25.5792 21.918C25.9883 22.1518 26.5143 22.5025 27.4495 22.5025L27.508 25.8925C27.508 26.1263 27.3326 26.3016 27.0988 26.2432ZM27.508 21.2167C26.6897 21.2751 26.3974 21.0998 25.9883 20.8075C25.2285 20.3399 24.4687 20.0477 22.6568 20.5153C21.5463 20.6906 21.1956 20.4568 20.728 20.1646C19.9682 19.697 19.2083 19.4048 17.3965 19.8724C16.286 20.0477 15.9353 19.8139 15.4677 19.5217C14.7079 19.0541 13.948 18.7619 12.1361 19.2294C11.0256 19.4048 10.6749 19.171 10.2074 18.8788C9.44754 18.4112 8.68772 18.1189 6.87583 18.5865C5.76532 18.7619 5.41463 18.5281 4.94705 18.2358C4.24567 17.8267 3.60274 17.5344 2.19999 17.8267V14.612C3.48585 14.3198 3.89498 14.5536 4.36257 14.8458C4.7717 15.0796 5.29773 15.4303 6.2329 15.4303C6.46669 15.4303 6.75893 15.4303 7.10962 15.3719C7.10962 15.3719 7.10962 15.3719 7.16807 15.3719C7.16807 15.3719 7.16807 15.3719 7.22652 15.3719C8.74616 14.9627 9.1553 15.1965 9.68133 15.4888C10.0905 15.7226 10.6165 16.0732 11.5517 16.0732C11.7855 16.0732 12.0777 16.0732 12.4284 16.0148C12.4284 16.0148 12.4284 16.0148 12.4868 16.0148C12.4868 16.0148 12.4868 16.0148 12.5453 16.0148C14.0649 15.6057 14.4741 15.8395 15.0001 16.1317C15.4092 16.3655 15.9353 16.7162 16.8704 16.7162C17.1042 16.7162 17.3965 16.7162 17.7472 16.6577C17.7472 16.6577 17.7472 16.6577 17.8056 16.6577C17.8056 16.6577 17.8056 16.6577 17.864 16.6577C19.3837 16.2486 19.7928 16.4824 20.3189 16.7746C20.728 17.0084 21.254 17.3591 22.1892 17.3591C22.423 17.3591 22.7152 17.3591 23.0659 17.3007C23.0659 17.3007 23.0659 17.3007 23.1244 17.3007C23.1244 17.3007 23.1244 17.3007 23.1828 17.3007C24.7025 16.8915 25.1116 17.1253 25.6376 17.4176C26.0468 17.6513 26.5728 18.002 27.508 18.002V21.2167ZM27.508 16.7746C26.6897 16.8331 26.339 16.6577 25.9299 16.3655C25.17 15.8979 24.4102 15.6057 22.5983 16.0732C21.4878 16.2486 21.1371 16.0148 20.6695 15.7226C19.9097 15.255 19.1499 14.9627 17.338 15.4303C16.2275 15.6057 15.8768 15.3719 15.4092 15.0796C14.6494 14.6121 13.8896 14.3198 12.0777 14.7874C10.9672 14.9627 10.6165 14.7289 10.1489 14.4367C9.38909 13.9691 8.62927 13.6769 6.81738 14.1445C5.70687 14.3198 5.35618 14.086 4.8886 13.7938C4.18722 13.3846 3.54429 13.0924 2.14154 13.3846V9.99466C2.14154 9.70242 2.43378 9.46863 2.72602 9.46863L27.1573 12.5079C27.3911 12.5664 27.508 12.6833 27.508 12.9171V16.7746Z" fill="#313131"/>
</svg>
